<svg width="160" height="100" viewBox="0 0 160 100" fill="none" xmlns="http://www.w3.org/2000/svg">
<g clip-path="url(#clip0_1218_4950)">
<rect width="160" height="100" fill="white"/>
<path d="M143 100C152.389 100 160 92.3888 160 83C160 73.6112 152.389 66 143 66C133.611 66 126 73.6112 126 83C126 92.3888 133.611 100 143 100Z" fill="#3C2861"/>
<path d="M142.802 90.959C140.525 90.891 138.754 89.8769 137.696 88.5198L138.293 87.9906C139.189 89.0934 140.709 90.1755 142.802 90.2671V82.9527C140.478 82.3082 138.181 81.6193 138.181 78.9969C138.181 76.5814 140.342 75.1564 142.802 75.0884V73.0188H143.538V75.112C145.492 75.2273 146.965 76.0315 147.952 77.2525L147.379 77.7817C146.412 76.54 145.078 75.9191 143.538 75.8038V82.3584C145.906 83.0473 148.298 83.8988 148.298 86.7991C148.298 88.4548 147.287 90.755 143.538 90.9383V92.9842H142.802V90.9619V90.959ZM142.802 82.1485V75.7772C140.661 75.8452 138.985 77.1786 138.985 78.9969C138.985 80.9304 140.78 81.5513 142.802 82.1485ZM143.538 83.1597V90.2671C146.666 90.0838 147.494 88.1739 147.494 86.7932C147.494 84.5167 145.608 83.7805 143.538 83.1597Z" fill="#F2EDFF"/>
<path d="M105 100C114.389 100 122 92.3888 122 83C122 73.6112 114.389 66 105 66C95.6112 66 88 73.6112 88 83C88 92.3888 95.6112 100 105 100Z" fill="#DFD1FB"/>
<path d="M104.997 83H97.6855L104.997 71.505V83Z" fill="#3C2861"/>
<path d="M104.997 83H112.306L104.997 71.505V83Z" fill="white"/>
<path d="M104.997 83H112.306L104.997 94.4979V83Z" fill="#3C2861"/>
<path d="M104.997 83H97.6855L104.997 94.4979V83Z" fill="white"/>
<path d="M86.7783 0H4.22166C1.8901 0 0 1.8834 0 4.20668V48.66C0 50.9833 1.8901 52.8667 4.22166 52.8667H86.7783C89.1099 52.8667 91 50.9833 91 48.66V4.20668C91 1.8834 89.1099 0 86.7783 0Z" fill="#DFD1FB"/>
<path d="M31.1999 15.6H16.4666V19.9333H31.1999V15.6Z" fill="#271B3D"/>
<path d="M31.1999 32.9333H16.4666V37.2667H31.1999V32.9333Z" fill="#674399"/>
<path d="M41 59H0V63H41V59Z" fill="#674399"/>
<path d="M36.3999 24.2667H11.2666V28.6H36.3999V24.2667Z" fill="#674399"/>
<path d="M80.0667 9H46V43.0667H80.0667V9Z" fill="#F2EDFF"/>
<path d="M73.2532 20.3555C75.7618 20.3555 77.7954 18.3219 77.7954 15.8133C77.7954 13.3047 75.7618 11.2711 73.2532 11.2711C70.7446 11.2711 68.7109 13.3047 68.7109 15.8133C68.7109 18.3219 70.7446 20.3555 73.2532 20.3555Z" fill="#DFD1FB"/>
<path d="M72.2955 30.1786C67.5795 30.1786 65.4923 36.9013 62.1887 36.9013C58.7206 36.9013 60.2512 22.6267 55.3018 22.6267C51.9219 22.6267 47.6787 31.5535 46 37.3644V43.0667H49.0687C49.0881 43.0059 51.0317 32.0963 54.8021 32.1542C57.8333 32.2005 57.8752 39.8971 61.2701 40.2821C64.846 40.6888 65.594 35.6045 70.2292 35.6045C74.3422 35.6045 76.404 43.0667 76.404 43.0667H80.0667V39.1648C80.0667 37.6032 77.0114 30.1801 72.297 30.1801L72.2955 30.1786Z" fill="#DFD1FB"/>
<path d="M47 61L124 61" stroke="#966CCF" stroke-miterlimit="10" stroke-dasharray="5 5"/>
<path d="M127.418 9H129.049C129.049 11.5921 129.801 14.7166 134.721 14.7166V16.269C129.799 16.269 129.049 19.3935 129.049 21.9856H127.418C127.418 19.3935 126.666 16.269 121.746 16.269V14.7166C126.668 14.7166 127.418 11.5921 127.418 9Z" fill="#966CCF"/>
<path d="M104.631 37.1393C105.906 35.8645 105.817 31.903 105.817 30H107.183C107.183 31.9045 107.094 35.8645 108.369 37.1393C109.644 38.4142 112.095 38.3249 114 38.3249V39.6751C112.095 39.6751 109.644 39.5858 108.369 40.8607C107.094 42.1355 107.183 46.097 107.183 48H105.817C105.817 46.0955 105.906 42.1355 104.631 40.8607C103.356 39.5858 100.905 39.6751 99 39.6751V38.3249C100.905 38.3249 103.356 38.4142 104.631 37.1393Z" fill="#DFD1FB"/>
<path d="M114 8.60289C114 7.90072 114.949 7.9278 115.437 7.43863C115.926 6.94946 115.899 6 116.601 6C117.302 6 117.279 6.94765 117.768 7.43682C118.256 7.92599 119.203 7.90253 119.203 8.60469C119.203 9.30686 118.255 9.27978 117.766 9.76895C117.277 10.2581 117.304 11.2076 116.603 11.2076C115.901 11.2076 115.924 10.2599 115.436 9.77076C114.947 9.28159 114 9.30506 114 8.60289Z" fill="#3C2861"/>
<path d="M121.758 16.2689C121.751 15.3881 121.746 14.7166 121.746 14.7166C124.936 14.7166 129.049 15.3303 129.049 21.9856H127.418C127.418 19.3953 126.668 16.2744 121.758 16.2689Z" fill="#674399"/>
<path d="M134.557 47.982L138 44.5362L109.308 18.1138L108.161 19.2618L134.557 47.982Z" fill="#CFB9F6"/>
<path d="M116.934 28.8069L108.161 19.2618L109.308 18.1138L118.842 26.8954L116.934 28.8069Z" fill="#674399"/>
<g clip-path="url(#clip1_1218_4950)">
<path d="M80.7434 75.6265L75.7421 78.5752L73.4481 76.2809L76.3953 71.2789C74.2213 70.6445 71.7784 71.1833 70.0643 72.8977C68.0746 74.8876 67.6692 77.8597 68.8445 80.2529C66.1006 82.7595 58.8541 89.3914 57.6977 90.4347C56.639 91.3902 56.9123 92.4201 57.9376 93.4456L58.5786 94.0867C59.604 95.1122 60.6338 95.3855 61.5892 94.3267C62.6323 93.1701 69.3377 85.9226 71.8451 83.1783C74.2368 84.3538 77.1341 83.9483 79.1237 81.9584C80.8378 80.244 81.3766 77.8008 80.7423 75.6265H80.7434Z" fill="#BEA0F2"/>
<path d="M57.9377 93.4456L58.5787 94.0867C59.4852 94.9933 60.3973 95.3111 61.256 94.6389C63.4334 92.2468 71.844 83.1783 71.844 83.1783L57.0879 92.1557C57.2101 92.5823 57.5067 93.0145 57.9388 93.4456H57.9377Z" fill="#AD86E9"/>
</g>
</g>
<defs>
<clipPath id="clip0_1218_4950">
<rect width="160" height="100" fill="white"/>
</clipPath>
<clipPath id="clip1_1218_4950">
<rect width="24" height="24" fill="white" transform="translate(57 71)"/>
</clipPath>
</defs>
</svg>
