<svg width="160" height="100" viewBox="0 0 160 100" fill="none" xmlns="http://www.w3.org/2000/svg">
<g clip-path="url(#clip0_1218_4432)">
<rect width="160" height="100" fill="white"/>
<path d="M37 13L95 13V4L37 4V13Z" fill="#DFD1FB"/>
<path d="M37 28L86 28V19L37 19V28Z" fill="#DFD1FB"/>
<path d="M52 52L91 52V44L52 44V52Z" fill="#BEA0F2"/>
<path d="M52 66H101V58L52 58V66Z" fill="#BEA0F2"/>
<path d="M15.5 31C24.0604 31 31 24.0604 31 15.5C31 6.93959 24.0604 0 15.5 0C6.93959 0 0 6.93959 0 15.5C0 24.0604 6.93959 31 15.5 31Z" fill="#F2EDFF"/>
<path d="M15.3193 22.7567C13.2437 22.6947 11.629 21.7701 10.6639 20.5328L11.2085 20.0503C12.0252 21.0557 13.4108 22.0423 15.3193 22.1259V15.4569C13.2005 14.8692 11.106 14.2411 11.106 11.8501C11.106 9.64774 13.0765 8.34844 15.3193 8.28644V6.39948H15.9905V8.308C17.7724 8.41313 19.1148 9.14635 20.0152 10.2597L19.4922 10.7422C18.6107 9.61 17.395 9.04391 15.9905 8.93878V14.915C18.1498 15.5431 20.3305 16.3195 20.3305 18.9639C20.3305 20.4735 19.4086 22.5707 15.9905 22.7378V24.6032H15.3193V22.7594V22.7567ZM15.3193 14.7237V8.91452C13.3677 8.97652 11.8392 10.1923 11.8392 11.8501C11.8392 13.613 13.4755 14.1791 15.3193 14.7237ZM15.9905 15.6456V22.1259C18.8425 21.9588 19.5973 20.2174 19.5973 18.9585C19.5973 16.8829 17.8775 16.2117 15.9905 15.6456Z" fill="#271B3D"/>
<rect y="38" width="46" height="31" rx="15.5" fill="#DFD1FB"/>
<path d="M15.5475 60.7479C13.4409 60.686 11.8022 59.7617 10.8228 58.5249L11.3754 58.0425C12.2043 59.0476 13.6105 60.0339 15.5475 60.1174V53.4509C13.3971 52.8635 11.2714 52.2356 11.2714 49.8455C11.2714 47.644 13.2713 46.3452 15.5475 46.2832V44.397H16.2287V46.3048C18.037 46.4099 19.3995 47.1428 20.3132 48.2557L19.7825 48.738C18.8879 47.6063 17.654 47.0404 16.2287 46.9353V52.9093C18.42 53.5371 20.6333 54.3132 20.6333 56.9566C20.6333 58.4656 19.6977 60.562 16.2287 60.7291V62.5937H15.5475V60.7506V60.7479ZM15.5475 52.718V46.9111C13.5667 46.9731 12.0156 48.1883 12.0156 49.8455C12.0156 51.6078 13.6762 52.1737 15.5475 52.718ZM16.2287 53.6395V60.1174C19.1231 59.9503 19.8892 58.2096 19.8892 56.9512C19.8892 54.8764 18.1437 54.2054 16.2287 53.6395Z" fill="#271B3D"/>
<path d="M30.1457 60.7479C28.0392 60.686 26.4004 59.7617 25.421 58.5249L25.9736 58.0425C26.8026 59.0476 28.2088 60.0339 30.1457 60.1174V53.4509C27.9954 52.8635 25.8697 52.2356 25.8697 49.8455C25.8697 47.644 27.8696 46.3452 30.1457 46.2832V44.397H30.8269V46.3048C32.6353 46.4099 33.9977 47.1428 34.9115 48.2557L34.3807 48.738C33.4861 47.6063 32.2523 47.0404 30.8269 46.9353V52.9093C33.0183 53.5371 35.2316 54.3132 35.2316 56.9566C35.2316 58.4656 34.2959 60.562 30.8269 60.7291V62.5937H30.1457V60.7506V60.7479ZM30.1457 52.718V46.9111C28.165 46.9731 26.6138 48.1883 26.6138 49.8455C26.6138 51.6078 28.2744 52.1737 30.1457 52.718ZM30.8269 53.6395V60.1174C33.7214 59.9503 34.4874 58.2096 34.4874 56.9512C34.4874 54.8764 32.742 54.2054 30.8269 53.6395Z" fill="#271B3D"/>
<g clip-path="url(#clip1_1218_4432)">
<path d="M111.35 48C108.413 48 106.75 46.3584 106.75 43.4289V14.5642C106.75 11.6347 108.413 9.99314 111.35 9.99314H149.648C152.585 9.99314 154.247 11.6347 154.247 14.5642V43.4289C154.247 46.3584 152.585 48 149.648 48H111.35Z" fill="#BEA0F2"/>
<path d="M106.75 28.9979V43.4289C106.75 46.3584 108.413 48 111.35 48H147.74L106.75 28.9979Z" fill="#966CCF"/>
<path d="M132.938 9.99578H128.062V48H132.938V9.99578Z" fill="#DFD1FB"/>
<path d="M139.929 2.33687C137.593 0.0117517 134.931 -0.11229 132.804 2.00433L131.88 2.92541C131.297 3.50603 130.846 4.28723 130.5 4.93383C130.152 4.28723 129.703 3.50603 129.12 2.92541L128.196 2.00433C126.069 -0.114929 123.404 0.0117517 121.071 2.33687C118.736 4.66199 118.612 7.31437 120.739 9.43363L121.662 10.3521C123.805 12.4845 126.642 12.8435 128.31 12.8435H132.696C134.361 12.8435 137.2 12.4845 139.343 10.3521L140.267 9.43363C142.394 7.31437 142.27 4.66199 139.934 2.33687H139.929ZM124.811 7.21408L124.217 6.6229C123.876 6.28245 123.578 5.67544 124 5.25581C124.423 4.83618 125.03 5.12913 125.373 5.46958L125.966 6.06076C126.613 6.70472 127.283 8.02431 127.423 8.77912C126.663 8.63924 125.46 7.8554 124.813 7.2088L124.811 7.21408ZM136.781 6.6229L136.187 7.21408C135.54 7.85804 134.337 8.64452 133.577 8.78439C133.717 8.02959 134.385 6.71 135.034 6.06604L135.627 5.47486C135.97 5.1344 136.577 4.83882 136.997 5.26109C137.419 5.68072 137.121 6.28773 136.781 6.62818V6.6229Z" fill="#DFD1FB"/>
<path d="M122.496 21.7639C123.019 21.2413 130.133 14.1235 130.133 14.1235L126.317 10.3072C126.317 10.3072 119.203 17.4224 118.678 17.945C118.155 18.4675 117.783 18.7895 118.219 19.225C118.654 19.6605 119.549 19.7871 120.1 20.3387C120.652 20.8903 120.778 21.785 121.214 22.2205C121.649 22.6559 121.971 22.2838 122.494 21.7612L122.496 21.7639Z" fill="#DFD1FB"/>
<path d="M142.32 17.9476C141.797 17.4251 134.68 10.3098 134.68 10.3098L130.864 14.1261C130.864 14.1261 137.979 21.2413 138.501 21.7665C139.024 22.2917 139.346 22.6612 139.781 22.2257C140.216 21.7903 140.343 20.8956 140.895 20.344C141.446 19.7924 142.341 19.6657 142.776 19.2303C143.211 18.7948 142.839 18.4728 142.317 17.9503L142.32 17.9476Z" fill="#DFD1FB"/>
</g>
<path d="M100.817 86.1091C100.817 85.3259 100.44 84.6047 99.8024 84.0108L95 86.1286L99.7764 88.2334C100.427 87.6362 100.817 86.902 100.817 86.1091Z" fill="#271B3D"/>
<path d="M99.8024 84.0108C100.436 84.6047 100.817 85.3258 100.817 86.109C100.817 86.902 100.43 87.6329 99.7764 88.2333L112.724 94.2539H117.025V78H112.724L99.8024 84.0108Z" fill="#DFD1FB"/>
<path d="M112.798 78C111.443 78.7375 110.396 79.3151 110.396 80.9891C110.396 82.1083 110.968 83.0514 111.982 83.5539C110.974 84.063 110.402 85.0158 110.396 86.1286C110.402 87.2381 110.971 88.1909 111.982 88.7032C110.968 89.2058 110.396 90.1488 110.396 91.2681C110.396 92.9421 111.443 93.5197 112.798 94.2572H156.234L159.05 89.7377V82.5195L156.234 78H112.798Z" fill="#271B3D"/>
<path d="M156.237 94.2572L159.053 89.74V82.5204L156.237 78H148.431L145.615 82.5204V89.74L148.431 94.2572H156.237Z" fill="#DFD1FB"/>
<path d="M152.333 89.0678C153.419 89.0678 154.3 87.7388 154.3 86.0993C154.3 84.4598 153.419 83.1307 152.333 83.1307C151.246 83.1307 150.365 84.4598 150.365 86.0993C150.365 87.7388 151.246 89.0678 152.333 89.0678Z" fill="#271B3D"/>
<path d="M0 86L89 86" stroke="#CFB9F6" stroke-miterlimit="10"/>
<path d="M129.987 65.9736C131.636 65.9736 132.974 64.6364 132.974 62.9868C132.974 61.3372 131.636 60 129.987 60C128.337 60 127 61.3372 127 62.9868C127 64.6364 128.337 65.9736 129.987 65.9736Z" fill="#F2EDFF"/>
<path d="M139.5 65.9736C141.149 65.9736 142.487 64.6364 142.487 62.9868C142.487 61.3372 141.149 60 139.5 60C137.85 60 136.513 61.3372 136.513 62.9868C136.513 64.6364 137.85 65.9736 139.5 65.9736Z" fill="#CFB9F6"/>
<path d="M149.013 65.9736C150.663 65.9736 152 64.6364 152 62.9868C152 61.3372 150.663 60 149.013 60C147.364 60 146.026 61.3372 146.026 62.9868C146.026 64.6364 147.364 65.9736 149.013 65.9736Z" fill="#271B3D"/>
</g>
<defs>
<clipPath id="clip0_1218_4432">
<rect width="160" height="100" fill="white"/>
</clipPath>
<clipPath id="clip1_1218_4432">
<rect width="47.5" height="47.5" fill="white" transform="translate(106.75 0.5)"/>
</clipPath>
</defs>
</svg>
